<?xml version="1.0" encoding="UTF-8"?>
<svg width="100" height="100" viewBox="0 0 100 100" fill="none" xmlns="http://www.w3.org/2000/svg">
  <defs>
    <linearGradient id="logoGradient" x1="0%" y1="0%" x2="100%" y2="100%">
      <stop offset="0%" stop-color="#A78BFA"/>
      <stop offset="100%" stop-color="#3B82F6"/>
    </linearGradient>
  </defs>
  <path
    fill-rule="evenodd"
    clip-rule="evenodd"
    d="M50 90C72.0914 90 90 72.0914 90 50C90 27.9086 72.0914 10 50 10C27.9086 10 10 27.9086 10 50C10 72.0914 27.9086 90 50 90ZM50 85C69.33 85 85 69.33 85 50C85 30.67 69.33 15 50 15C30.67 15 15 30.67 15 50C15 69.33 30.67 85 50 85Z"
    fill="url(#logoGradient)"
  />
  <path
    d="M35 30H65"
    stroke="url(#logoGradient)"
    stroke-width="8"
    stroke-linecap="round"
  />
  <path
    d="M30 50H70"
    stroke="url(#logoGradient)"
    stroke-width="12"
    stroke-linecap="round"
  />
  <path
    d="M35 70H65"
    stroke="url(#logoGradient)"
    stroke-width="8"
    stroke-linecap="round"
  />
</svg>